# xmcd
#
# Track frame offsets:
#  150
#  18985
#  35124
#  58154
#  74615
#  93622
#  117100
#  133052
#  150458
#  170482
#  188564
#  210948
#  237589
#  253900
#
# Disc length: 3781 seconds
#
# Revision: 0
# Processed by: cddbd v1.4PL0 Copyright (c) Steve Scherf et al.
# Submitted via: AltoMP3_Maker 3.0
#
DISCID=c90ec30e
DTITLE=J.Oeditram - Memories forever
DYEAR=1900
DGENRE=
TTITLE0=Amiron Kie Duniya
TTITLE1=Mann Na Rangaye
TTITLE2=Bhajan Kare Nietnem Se
TTITLE3=Jo Sheesh Tallie
TTITLE4=Sabh Se Unchi
TTITLE5=Pehchan Sake To Pehchan
TTITLE6=Subah Ke Batiya
TTITLE7=Nis Dien Barsat
TTITLE8=Kismat Juda Juda
TTITLE9=Suraj Se Ja Kar
TTITLE10=Nayia Bhanwar More
TTITLE11=Koi Na Banai
TTITLE12=Bhool Bisar Mat Jana
TTITLE13=Ek Haath Me Desh Ka
EXTD=
EXTT0=
EXTT1=
EXTT2=
EXTT3=
EXTT4=
EXTT5=
EXTT6=
EXTT7=
EXTT8=
EXTT9=
EXTT10=
EXTT11=
EXTT12=
EXTT13=
PLAYORDER=
